<?xml version="1.0" encoding="UTF-8"?>
<!DOCTYPE svg PUBLIC "-//W3C//DTD SVG 1.1//EN" "http://www.w3.org/Graphics/SVG/1.1/DTD/svg11.dtd">
<svg xmlns="http://www.w3.org/2000/svg" version="1.1" width="32px" height="32px" style="shape-rendering:geometricPrecision; text-rendering:geometricPrecision; image-rendering:optimizeQuality; fill-rule:evenodd; clip-rule:evenodd" xmlns:xlink="http://www.w3.org/1999/xlink">
<g><path style="opacity:0.989" fill="#f2eded" d="M 11.5,-0.5 C 14.1667,-0.5 16.8333,-0.5 19.5,-0.5C 25.2384,1.57282 28.905,5.57282 30.5,11.5C 30.5,12.1667 30.1667,12.5 29.5,12.5C 29.5,12.1667 29.5,11.8333 29.5,11.5C 27.9674,7.12853 25.1341,3.7952 21,1.5C 20.5005,7.82458 20.3338,14.1579 20.5,20.5C 19.9644,23.6981 20.631,26.3647 22.5,28.5C 22.5,28.8333 22.5,29.1667 22.5,29.5C 21.8333,30.1667 21.1667,30.8333 20.5,31.5C 17.1667,31.5 13.8333,31.5 10.5,31.5C 9.83333,30.8333 9.16667,30.1667 8.5,29.5C 8.5,29.1667 8.5,28.8333 8.5,28.5C 10.3435,26.7211 11.0102,24.3878 10.5,21.5C 10.6663,14.825 10.4996,8.15835 10,1.5C 5.86591,3.7952 3.03258,7.12853 1.5,11.5C 1.5,11.8333 1.5,12.1667 1.5,12.5C 0.833333,12.5 0.5,12.1667 0.5,11.5C 2.09495,5.57282 5.76162,1.57282 11.5,-0.5 Z"/></g>
<g><path style="opacity:1" fill="#e03e4c" d="M 10.5,21.5 C 4.57897,20.5883 1.57897,17.2549 1.5,11.5C 3.03258,7.12853 5.86591,3.7952 10,1.5C 10.4996,8.15835 10.6663,14.825 10.5,21.5 Z"/></g>
<g><path style="opacity:1" fill="#e03e4d" d="M 29.5,11.5 C 29.5237,17.3511 26.5237,20.3511 20.5,20.5C 20.3338,14.1579 20.5005,7.82458 21,1.5C 25.1341,3.7952 27.9674,7.12853 29.5,11.5 Z"/></g>
<g><path style="opacity:0.345" fill="#caabac" d="M 30.5,11.5 C 30.8333,11.5 31.1667,11.5 31.5,11.5C 31.5,14.1667 31.5,16.8333 31.5,19.5C 30.8333,19.5 30.5,19.8333 30.5,20.5C 30.1667,20.5 29.8333,20.5 29.5,20.5C 29.5,17.8333 29.5,15.1667 29.5,12.5C 30.1667,12.5 30.5,12.1667 30.5,11.5 Z"/></g>
<g><path style="opacity:1" fill="#d91928" d="M 1.5,11.5 C 1.57897,17.2549 4.57897,20.5883 10.5,21.5C 11.0102,24.3878 10.3435,26.7211 8.5,28.5C 2.93807,24.6994 0.604732,19.366 1.5,12.5C 1.5,12.1667 1.5,11.8333 1.5,11.5 Z"/></g>
<g><path style="opacity:1" fill="#d91828" d="M 29.5,11.5 C 29.5,11.8333 29.5,12.1667 29.5,12.5C 29.5,15.1667 29.5,17.8333 29.5,20.5C 27.883,23.7843 25.5497,26.4509 22.5,28.5C 20.631,26.3647 19.9644,23.6981 20.5,20.5C 26.5237,20.3511 29.5237,17.3511 29.5,11.5 Z"/></g>
<g><path style="opacity:0.847" fill="#907c7d" d="M -0.5,11.5 C -0.166667,11.5 0.166667,11.5 0.5,11.5C 0.5,12.1667 0.833333,12.5 1.5,12.5C 0.604732,19.366 2.93807,24.6994 8.5,28.5C 8.5,28.8333 8.5,29.1667 8.5,29.5C 4.07171,27.4073 1.07171,24.074 -0.5,19.5C -0.5,16.8333 -0.5,14.1667 -0.5,11.5 Z"/></g>
<g><path style="opacity:0.235" fill="#766a6a" d="M 29.5,20.5 C 29.8333,20.5 30.1667,20.5 30.5,20.5C 29.2316,24.7671 26.5649,27.7671 22.5,29.5C 22.5,29.1667 22.5,28.8333 22.5,28.5C 25.5497,26.4509 27.883,23.7843 29.5,20.5 Z"/></g>
</svg>
